<?xml version="1.0" standalone="no"?>
<!DOCTYPE svg PUBLIC "-//W3C//DTD SVG 20010904//EN"
 "http://www.w3.org/TR/2001/REC-SVG-20010904/DTD/svg10.dtd">
<svg version="1.0" xmlns="http://www.w3.org/2000/svg"
 width="124.000000pt" height="124.000000pt" viewBox="0 0 124.000000 124.000000"
 preserveAspectRatio="xMidYMid meet">
<metadata>
Created by potrace 1.11, written by Peter Selinger 2001-2013
</metadata>
<g transform="translate(0.000000,124.000000) scale(0.100000,-0.100000)"
fill="#000000" stroke="none">
<path d="M605 1220 c-134 -33 -239 -149 -253 -277 -3 -31 0 -43 10 -44 7 -1
85 -1 174 -1 136 1 170 4 219 21 73 26 139 81 177 148 29 51 31 59 42 127 l6
36 -173 -1 c-94 -1 -185 -4 -202 -9z m231 -103 c3 -2 -10 -21 -29 -41 -52 -55
-95 -69 -219 -70 l-107 -2 20 28 c34 47 101 84 164 90 43 4 166 1 171 -5z"/>
<path d="M456 788 c-122 -16 -221 -87 -274 -196 -23 -49 -27 -69 -27 -147 0
-79 4 -97 28 -145 15 -30 38 -67 51 -81 61 -69 158 -116 251 -120 22 -1 49
-10 60 -20 11 -10 47 -30 79 -45 128 -58 284 -27 382 78 70 75 89 125 89 233
-1 107 -21 159 -87 231 -60 65 -143 103 -234 108 -11 1 -38 15 -60 32 -82 62
-162 85 -258 72z m113 -119 c39 -14 39 -20 1 -42 -108 -64 -172 -225 -141
-357 5 -24 9 -46 7 -48 -8 -7 -57 19 -90 49 -127 111 -102 309 48 384 54 27
121 33 175 14z"/>
</g>
</svg>
